<svg xmlns="http://www.w3.org/2000/svg" viewBox="0 0 258 80" width="258" height="80">
  <path d="M 27.77 52.90 L 20.08 52.90 L 29.44 39.90 L 20.18 27.10 L 27.77 27.10 L 36.55 39.92 Z" fill="#1A1A1A"/>
  <path d="M 58.39 52.90 L 50.69 52.90 L 41.92 39.92 L 50.69 27.10 L 58.29 27.10 L 49.03 39.90 Z" fill="#1A1A1A"/>
  <path d="M 30.31 52.90 L 38.01 52.90 L 46.78 39.92 L 38.01 27.10 L 30.41 27.10 L 39.67 39.90 Z" fill="#6E5BA6"/>
  <line x1="86.4" y1="16" x2="86.4" y2="64" stroke="#6E5BA6" stroke-width="1.5" opacity="0.4"/>
  <path d="M97.04 52.80L102.96 52.80L107.48 46.12L108.20 46.12L112.72 52.80L118.64 52.80L111.44 42.80L118.56 32.96L112.72 32.96L108.20 39.56L107.48 39.56L102.96 32.96L97.12 32.96L104.24 42.80ZM130.24 53.36C135.68 53.36 138.04 50.28 139.16 48.16L135.04 46.00C134.36 47.52 133.20 48.96 130.40 48.96C127.60 48.96 125.48 47.08 125.36 44.36L139.80 44.36L139.80 42.64C139.80 36.56 136 32.40 130.16 32.40C124.24 32.40 120.24 36.40 120.24 42.64L120.24 43.12C120.24 49.36 124.28 53.36 130.24 53.36ZM125.40 40.60C125.76 38.32 127.40 36.80 130.12 36.80C132.72 36.80 134.44 38.32 134.68 40.60ZM144.28 52.80L149.32 52.80L149.32 24.80L144.28 24.80ZM161.08 53.36C165.24 53.36 166.48 51.12 166.84 50.12L167.60 50.12L167.60 50.16C167.60 51.76 169.04 52.80 171 52.80L174.36 52.80L174.36 48.64L172.76 48.64C172.04 48.64 171.64 48.24 171.64 47.44L171.64 40.04C171.64 35.08 168.36 32.40 163.16 32.40C158 32.40 155.40 35 154.44 38L159.08 39.56C159.44 37.76 160.56 36.48 163.08 36.48C165.64 36.48 166.76 37.84 166.76 39.68L166.76 40.80L161.32 40.80C156.84 40.80 153.64 42.92 153.64 47.00C153.64 51.08 156.84 53.36 161.08 53.36ZM161.96 49.28C159.80 49.28 158.68 48.28 158.68 46.84C158.68 45.40 159.80 44.56 161.68 44.56L166.76 44.56L166.76 44.96C166.76 47.60 164.76 49.28 161.96 49.28Z" fill="#1A1A1A"/>
  <path d="M186.28 53.36C191.32 53.36 194.60 51.00 194.60 46.84C194.60 42.68 191.08 41.40 186.60 40.60L185.48 40.40C183.64 40.08 182.52 39.56 182.52 38.28C182.52 37.12 183.56 36.40 185.48 36.40C187.40 36.40 188.76 37.16 189.20 39.20L193.88 37.76C192.96 34.56 189.92 32.40 185.48 32.40C180.76 32.40 177.64 34.60 177.64 38.52C177.64 42.44 181.08 44 185.24 44.76L186.36 44.96C188.72 45.40 189.72 45.96 189.72 47.20C189.72 48.44 188.60 49.36 186.28 49.36C183.96 49.36 182.08 48.48 181.56 45.68L176.92 46.88C177.60 51.04 181.08 53.36 186.28 53.36ZM208.44 53.36C214.36 53.36 218.84 49.60 218.84 43.20L218.84 42.56C218.84 36.16 214.36 32.40 208.44 32.40C202.52 32.40 198.04 36.16 198.04 42.56L198.04 43.20C198.04 49.60 202.52 53.36 208.44 53.36ZM208.44 48.88C205.36 48.88 203.08 46.80 203.08 43.08L203.08 42.68C203.08 38.96 205.32 36.88 208.44 36.88C211.56 36.88 213.80 38.96 213.80 42.68L213.80 43.08C213.80 46.80 211.52 48.88 208.44 48.88ZM226.12 52.80L231.16 52.80L231.16 37.12L236.36 37.12L236.36 32.96L231.16 32.96L231.16 30.16C231.16 29.36 231.56 28.96 232.28 28.96L235.72 28.96L235.72 24.80L230.52 24.80C227.88 24.80 226.12 26.56 226.12 29.28L226.12 32.96L221.08 32.96L221.08 37.12L226.12 37.12ZM247.48 52.80L253.08 52.80L253.08 48.64L249.24 48.64C248.52 48.64 248.12 48.24 248.12 47.44L248.12 37.12L253.56 37.12L253.56 32.96L248.12 32.96L248.12 26.80L243.08 26.80L243.08 32.96L238.12 32.96L238.12 37.12L243.08 37.12L243.08 48.32C243.08 51.04 244.84 52.80 247.48 52.80Z" fill="#6E5BA6"/>
</svg>