<svg xmlns="http://www.w3.org/2000/svg" viewBox="0 0 222 80" width="222" height="80">
  <path d="M 11.86 57.60 L 4.16 57.60 L 13.52 44.60 L 4.26 31.81 L 11.86 31.81 L 20.63 44.63 Z" fill="#1A1A1A"/>
  <path d="M 44.55 57.60 L 36.86 57.60 L 28.08 44.63 L 36.86 31.81 L 44.45 31.81 L 35.19 44.60 Z" fill="#1A1A1A"/>
  <path d="M 16.47 57.60 L 24.17 57.60 L 32.95 44.63 L 24.17 31.81 L 16.58 31.81 L 25.83 44.60 Z" fill="#6E5BA6"/>
  <path d="M61.61 58.33C68.68 58.33 71.75 54.32 73.21 51.57L67.85 48.76C66.97 50.74 65.46 52.61 61.82 52.61C58.18 52.61 55.42 50.16 55.27 46.63L74.04 46.63L74.04 44.39C74.04 36.49 69.10 31.08 61.51 31.08C53.81 31.08 48.61 36.28 48.61 44.39L48.61 45.02C48.61 53.13 53.86 58.33 61.61 58.33ZM55.32 41.74C55.79 38.78 57.92 36.80 61.45 36.80C64.83 36.80 67.07 38.78 67.38 41.74ZM79.86 57.60L86.41 57.60L86.41 21.20L79.86 21.20ZM101.70 58.33C107.11 58.33 108.72 55.42 109.19 54.12L110.18 54.12L110.18 54.17C110.18 56.25 112.05 57.60 114.60 57.60L118.97 57.60L118.97 52.19L116.89 52.19C115.95 52.19 115.43 51.67 115.43 50.63L115.43 41.01C115.43 34.56 111.17 31.08 104.41 31.08C97.70 31.08 94.32 34.46 93.07 38.36L99.10 40.39C99.57 38.05 101.03 36.38 104.30 36.38C107.63 36.38 109.09 38.15 109.09 40.54L109.09 42.00L102.01 42.00C96.19 42.00 92.03 44.76 92.03 50.06C92.03 55.36 96.19 58.33 101.70 58.33ZM102.85 53.02C100.04 53.02 98.58 51.72 98.58 49.85C98.58 47.98 100.04 46.89 102.48 46.89L109.09 46.89L109.09 47.41C109.09 50.84 106.49 53.02 102.85 53.02Z" fill="#1A1A1A"/>
  <path d="M132.38 58.33C138.93 58.33 143.20 55.26 143.20 49.85C143.20 44.44 138.62 42.78 132.80 41.74L131.34 41.48C128.95 41.06 127.49 40.39 127.49 38.72C127.49 37.22 128.85 36.28 131.34 36.28C133.84 36.28 135.61 37.27 136.18 39.92L142.26 38.05C141.07 33.89 137.11 31.08 131.34 31.08C125.21 31.08 121.15 33.94 121.15 39.04C121.15 44.13 125.62 46.16 131.03 47.15L132.49 47.41C135.55 47.98 136.85 48.71 136.85 50.32C136.85 51.93 135.40 53.13 132.38 53.13C129.37 53.13 126.92 51.98 126.25 48.34L120.21 49.90C121.10 55.31 125.62 58.33 132.38 58.33ZM161.19 58.33C168.89 58.33 174.71 53.44 174.71 45.12L174.71 44.29C174.71 35.97 168.89 31.08 161.19 31.08C153.49 31.08 147.67 35.97 147.67 44.29L147.67 45.12C147.67 53.44 153.49 58.33 161.19 58.33ZM161.19 52.50C157.19 52.50 154.22 49.80 154.22 44.96L154.22 44.44C154.22 39.61 157.13 36.90 161.19 36.90C165.25 36.90 168.16 39.61 168.16 44.44L168.16 44.96C168.16 49.80 165.19 52.50 161.19 52.50ZM184.17 57.60L190.73 57.60L190.73 37.22L197.49 37.22L197.49 31.81L190.73 31.81L190.73 28.17C190.73 27.13 191.25 26.61 192.18 26.61L196.65 26.61L196.65 21.20L189.89 21.20C186.46 21.20 184.17 23.49 184.17 27.02L184.17 31.81L177.62 31.81L177.62 37.22L184.17 37.22ZM211.94 57.60L219.22 57.60L219.22 52.19L214.23 52.19C213.29 52.19 212.77 51.67 212.77 50.63L212.77 37.22L219.85 37.22L219.85 31.81L212.77 31.81L212.77 23.80L206.22 23.80L206.22 31.81L199.77 31.81L199.77 37.22L206.22 37.22L206.22 51.78C206.22 55.31 208.51 57.60 211.94 57.60Z" fill="#6E5BA6"/>
</svg>